<?xml version="1.0" encoding="utf-8"?>
<!-- Generator: Adobe Illustrator 16.0.0, SVG Export Plug-In . SVG Version: 6.00 Build 0)  -->
<!DOCTYPE svg PUBLIC "-//W3C//DTD SVG 1.1//EN" "http://www.w3.org/Graphics/SVG/1.1/DTD/svg11.dtd">
<svg version="1.1" id="Ebene_1" xmlns="http://www.w3.org/2000/svg" xmlns:xlink="http://www.w3.org/1999/xlink" x="0px" y="0px"
	 width="640px" height="143.668px" viewBox="0 0 640 143.668" enable-background="new 0 0 640 143.668" xml:space="preserve">
<g>
	
		<path fill="none" stroke="#ACACAC" stroke-width="14.7071" stroke-linecap="square" stroke-linejoin="round" stroke-miterlimit="50" d="
		M486.375,53.042c-16.385,0-29.671,13.691-29.671,30.077v29.014"/>
</g>
<g>
	
		<path fill="none" stroke="#ACACAC" stroke-width="14.7071" stroke-linecap="square" stroke-linejoin="round" stroke-miterlimit="50" d="
		M266.077,103.398c-2.685,2.687-5.881,4.857-9.431,6.359s-7.453,2.332-11.549,2.332c-4.097,0-8-0.83-11.549-2.332
		c-3.549-1.502-6.746-3.674-9.431-6.359c-2.685-2.685-4.857-5.881-6.359-9.432c-1.501-3.549-2.332-7.451-2.332-11.549
		s0.83-8,2.332-11.549c1.501-3.551,3.674-6.747,6.359-9.432c2.685-2.685,5.881-4.857,9.431-6.358
		c3.55-1.502,7.453-2.332,11.549-2.332c4.096,0,7.999,0.83,11.549,2.332c3.55,1.501,6.747,3.674,9.431,6.358
		c2.684,2.684,4.857,5.881,6.358,9.432c1.501,3.549,2.332,7.451,2.332,11.549l0.084,0.042c0,11.162,3.293,21.444,7.129,29.63"/>
</g>
<g>
	
		<path fill="none" stroke="#ACACAC" stroke-width="14.7071" stroke-linecap="square" stroke-linejoin="round" stroke-miterlimit="50" d="
		M124.044,82.354c0-16.389,13.416-29.604,29.804-29.604c16.385,0,29.802,13.35,29.802,29.737v29.604"/>
	
		<line fill="none" stroke="#ACACAC" stroke-width="14.7071" stroke-linecap="square" stroke-linejoin="round" stroke-miterlimit="50" x1="124.044" y1="112.132" x2="124.044" y2="23.889"/>
</g>
<g>
	
		<path fill="none" stroke="#ACACAC" stroke-width="14.7071" stroke-linecap="square" stroke-linejoin="round" stroke-miterlimit="50" d="
		M318.215,52.748l0.09,29.713c0,11.162,3.292,21.443,7.128,29.63"/>
	
		<line fill="none" stroke="#ACACAC" stroke-width="14.7071" stroke-linecap="square" stroke-linejoin="round" stroke-miterlimit="50" x1="318.038" y1="27.09" x2="318.038" y2="26.69"/>
</g>
<g>
	
		<line fill="none" stroke="#1A9DC0" stroke-width="14.0068" stroke-linecap="square" stroke-linejoin="round" stroke-miterlimit="50" x1="606.454" y1="53.303" x2="606.454" y2="11.282"/>
	
		<line fill="none" stroke="#1A9DC0" stroke-width="14.0068" stroke-linecap="square" stroke-linejoin="round" stroke-miterlimit="50" x1="584.517" y1="33.838" x2="626.537" y2="33.838"/>
</g>
<g>
	
		<path fill="none" stroke="#ACACAC" stroke-width="14.7071" stroke-linecap="square" stroke-linejoin="round" stroke-miterlimit="50" d="
		M559.041,103.398c-2.685,2.687-5.881,4.857-9.431,6.359s-7.453,2.332-11.549,2.332c-4.097,0-8-0.83-11.55-2.332
		c-3.549-1.502-6.746-3.674-9.43-6.359c-2.686-2.685-4.857-5.881-6.359-9.432c-1.502-3.549-2.332-7.451-2.332-11.549
		s0.83-8,2.332-11.549c1.5-3.551,3.674-6.747,6.359-9.432c2.684-2.685,5.881-4.857,9.43-6.358c3.551-1.502,7.453-2.332,11.55-2.332
		c4.096,0,7.999,0.83,11.549,2.332c3.55,1.501,6.747,3.674,9.431,6.358s4.857,5.881,6.358,9.432
		c1.501,3.549,2.332,7.451,2.332,11.549l0.084,0.042c0,11.162,3.293,21.444,7.129,29.63"/>
</g>
<g>
	
		<path fill="none" stroke="#ACACAC" stroke-width="14.7071" stroke-linecap="square" stroke-linejoin="round" stroke-miterlimit="50" d="
		M38.752,103.398c2.685,2.687,5.881,4.857,9.431,6.359s7.453,2.332,11.549,2.332c4.097,0,8-0.83,11.549-2.332
		c3.549-1.502,6.746-3.674,9.431-6.359c2.685-2.685,4.857-5.881,6.359-9.432c1.501-3.549,2.332-7.451,2.332-11.549
		s-0.83-8-2.332-11.549c-1.501-3.551-3.674-6.747-6.359-9.432c-2.685-2.685-5.881-4.857-9.431-6.358
		c-3.55-1.502-7.453-2.332-11.549-2.332c-4.096,0-7.999,0.83-11.549,2.332c-3.55,1.501-6.747,3.674-9.431,6.358
		c-2.684,2.684-4.857,5.881-6.358,9.432c-1.501,3.549-2.332,7.451-2.332,11.549l-0.084,0.042c0,26.712-18.853,48.362-18.853,48.362"
		/>
</g>
<g>
	
		<path fill="none" stroke="#ACACAC" stroke-width="14.7071" stroke-linecap="square" stroke-linejoin="round" stroke-miterlimit="50" d="
		M408.416,61.52c-2.686-2.687-5.881-4.857-9.432-6.359c-3.549-1.502-7.453-2.332-11.549-2.332c-4.098,0-8,0.83-11.549,2.332
		s-6.746,3.674-9.432,6.359c-2.684,2.685-4.857,5.881-6.359,9.432c-1.5,3.549-2.332,7.451-2.332,11.549s0.83,8,2.332,11.549
		c1.502,3.551,3.676,6.747,6.359,9.432c2.686,2.686,5.881,4.857,9.432,6.358c3.551,1.502,7.453,2.332,11.549,2.332
		s8-0.83,11.549-2.332c3.551-1.501,6.748-3.674,9.432-6.358c2.684-2.684,4.857-5.881,6.357-9.432
		c1.502-3.549,2.332-7.451,2.332-11.549l0.084-0.042c0-26.712,18.854-48.362,18.854-48.362"/>
</g>
</svg>
