<?xml version="1.0" encoding="utf-8"?>
<!-- Generator: Adobe Illustrator 16.0.0, SVG Export Plug-In . SVG Version: 6.00 Build 0)  -->
<!DOCTYPE svg PUBLIC "-//W3C//DTD SVG 1.1//EN" "http://www.w3.org/Graphics/SVG/1.1/DTD/svg11.dtd">
<svg version="1.1" id="Ebene_1" xmlns="http://www.w3.org/2000/svg" xmlns:xlink="http://www.w3.org/1999/xlink" x="0px" y="0px"
	 width="939.094px" height="225.021px" viewBox="0 0 939.094 225.021" enable-background="new 0 0 939.094 225.021"
	 xml:space="preserve">
<path fill="none" stroke="#ACACAC" stroke-width="21" stroke-linecap="square" stroke-linejoin="round" stroke-miterlimit="50" d="
	M698.064,88.667c-23.396,0-42.365,19.548-42.365,42.945v41.428"/>
<circle fill="none" stroke="#ACACAC" stroke-width="21" stroke-linecap="square" stroke-linejoin="round" stroke-miterlimit="50" cx="88.873" cy="130.613" r="42.365"/>
<path fill="none" stroke="#ACACAC" stroke-width="21" stroke-linecap="square" stroke-linejoin="round" stroke-miterlimit="50" d="
	M46.385,130.673c0,38.14-26.919,69.055-26.919,69.055"/>
<circle fill="none" stroke="#ACACAC" stroke-width="21" stroke-linecap="square" stroke-linejoin="round" stroke-miterlimit="50" cx="556.787" cy="130.729" r="42.366"/>
<path fill="none" stroke="#ACACAC" stroke-width="21" stroke-linecap="square" stroke-linejoin="round" stroke-miterlimit="50" d="
	M599.276,130.667c0-38.139,26.92-69.054,26.92-69.054"/>
<circle fill="none" stroke="#ACACAC" stroke-width="21" stroke-linecap="square" stroke-linejoin="round" stroke-miterlimit="50" cx="353.548" cy="130.613" r="42.366"/>
<path fill="none" stroke="#ACACAC" stroke-width="21" stroke-linecap="square" stroke-linejoin="round" stroke-miterlimit="50" d="
	M180.699,130.519c0-23.398,19.156-42.271,42.556-42.271c23.396,0,42.553,19.062,42.553,42.461v42.271"/>
<path fill="none" stroke="#ACACAC" stroke-width="21" stroke-linecap="square" stroke-linejoin="round" stroke-miterlimit="50" d="
	M396.034,130.673c0,15.938,4.702,30.619,10.179,42.306"/>
<circle fill="none" stroke="#ACACAC" stroke-width="21" stroke-linecap="square" stroke-linejoin="round" stroke-miterlimit="50" cx="771.864" cy="130.613" r="42.366"/>
<path fill="none" stroke="#ACACAC" stroke-width="21" stroke-linecap="square" stroke-linejoin="round" stroke-miterlimit="50" d="
	M814.23,130.673c0,15.938,4.702,30.619,10.176,42.306"/>
<line fill="none" stroke="#ACACAC" stroke-width="21" stroke-linecap="square" stroke-linejoin="round" stroke-miterlimit="50" x1="180.699" y1="173.04" x2="180.699" y2="47.04"/>
<path fill="none" stroke="#ACACAC" stroke-width="21" stroke-linecap="square" stroke-linejoin="round" stroke-miterlimit="50" d="
	M457.951,88.247l0.129,42.426c0,15.938,4.702,30.619,10.177,42.306"/>
<line fill="none" stroke="#ACACAC" stroke-width="21" stroke-linecap="square" stroke-linejoin="round" stroke-miterlimit="50" x1="457.698" y1="53.04" x2="457.698" y2="51.04"/>
<line fill="none" stroke="#1A9DC0" stroke-width="20" stroke-linecap="square" stroke-linejoin="round" stroke-miterlimit="50" x1="869.522" y1="89.04" x2="869.522" y2="29.04"/>
<line fill="none" stroke="#1A9DC0" stroke-width="20" stroke-linecap="square" stroke-linejoin="round" stroke-miterlimit="50" x1="838.198" y1="61.246" x2="898.198" y2="61.246"/>
</svg>
